<svg width="956" height="546" viewBox="0 0 956 546" fill="none" xmlns="http://www.w3.org/2000/svg">
<path d="M692.13 248.09L597.5 267.89C596.81 268.035 596.096 268.011 595.418 267.82C594.74 267.629 594.118 267.277 593.605 266.793C593.092 266.31 592.704 265.71 592.473 265.044C592.243 264.379 592.176 263.667 592.28 262.97L610.44 140.37C610.585 139.387 611.059 138.482 611.786 137.804C612.513 137.126 613.449 136.716 614.44 136.64L661.27 133.45C662.274 133.381 663.271 133.661 664.093 134.242C664.915 134.823 665.511 135.67 665.78 136.64L695.41 242.64C695.569 243.214 695.61 243.814 695.53 244.403C695.449 244.993 695.249 245.561 694.942 246.071C694.636 246.581 694.228 247.023 693.744 247.37C693.261 247.717 692.711 247.962 692.13 248.09Z" fill="white"/>
<path d="M901.281 18.06C887.801 38.88 842.481 69.51 836.351 73.18C834.981 73.8703 833.514 74.349 832.001 74.6C821.533 66.9452 808.909 62.8037 795.941 62.77C780.034 62.8592 764.766 69.0436 753.281 80.05C744.331 78.51 738.661 75.6 735.481 73.43C734.461 72.7448 733.707 71.7313 733.343 70.5579C732.979 69.3845 733.028 68.1219 733.481 66.98C744.291 40.39 793.291 5.63998 815.481 2.12998C838.801 -1.54002 914.751 -2.77002 901.281 18.06Z" fill="white"/>
<path d="M766.529 253.87C766.529 263.01 759.949 270.4 751.829 270.4C743.709 270.4 737.129 263.01 737.129 253.87C737.125 252.841 737.212 251.814 737.389 250.8H737.129V200.58H741.999V241.53C743.272 240.214 744.794 239.166 746.477 238.445C748.159 237.723 749.969 237.345 751.799 237.33C759.999 237.33 766.529 244.73 766.529 253.87Z" fill="white"/>
<path d="M724.62 64.61H724.88V122.18H720V73.88C718.727 75.1955 717.205 76.2444 715.522 76.9654C713.84 77.6865 712.031 78.0654 710.2 78.08C702.08 78.08 695.5 70.68 695.5 61.55C695.5 52.42 702.06 45 710.18 45C718.3 45 724.88 52.4 724.88 61.54C724.881 62.5689 724.794 63.5959 724.62 64.61Z" fill="white"/>
<path d="M844.929 133.21C844.929 162.97 822.989 187.11 795.929 187.11C794.929 187.11 793.929 187.11 792.929 187C794.849 175.7 793.249 161.86 787.679 148.11C779.589 128.11 765.339 113.89 751.609 110.11C759.459 91.88 776.339 79.27 795.909 79.27C822.999 79.31 844.929 103.44 844.929 133.21Z" fill="white"/>
<path d="M795.93 66.11C762.24 66.11 734.93 96.11 734.93 133.21C734.93 170.31 762.23 200.3 795.93 200.3C829.63 200.3 856.93 170.3 856.93 133.21C856.93 96.12 829.61 66.11 795.93 66.11ZM795.93 190.78C766.93 190.78 743.25 164.96 743.25 133.21C743.25 101.46 766.88 75.63 795.93 75.63C824.98 75.63 848.6 101.46 848.6 133.21C848.6 164.96 825 190.78 795.93 190.78Z" fill="white"/>
<path d="M954.08 199.43L863.08 219.16C861.647 219.471 860.157 219.407 858.756 218.974C857.355 218.541 856.089 217.755 855.08 216.69L833.55 193.9L831.92 192.18C833.61 190.9 835.25 189.53 836.83 188.09C848.495 177.203 856.289 162.808 859.03 147.09L954.6 195.39C954.989 195.599 955.305 195.921 955.507 196.314C955.709 196.706 955.787 197.151 955.731 197.589C955.675 198.027 955.487 198.438 955.192 198.766C954.897 199.095 954.509 199.326 954.08 199.43Z" fill="white"/>
<path d="M742.84 203.5L752.18 202.5C744.18 208.36 733.82 211.59 722.43 211.59C696.43 211.59 674.65 194.78 674.65 168.1C674.65 142.64 693.92 121.71 718.28 119.86L714.11 123.86C700.92 130.77 691.8 145.5 691.8 162.57C691.8 186.25 709.36 205.44 731 205.44C735.027 205.452 739.028 204.796 742.84 203.5Z" fill="white"/>
<path d="M738.48 207.92H738.35" stroke="white" stroke-miterlimit="10"/>
<path d="M777.001 202.48L767.191 203.86L738.441 207.92H738.301C728.625 206.332 719.648 201.878 712.53 195.134C705.413 188.39 700.483 179.665 698.377 170.088C696.272 160.512 697.088 150.524 700.72 141.416C704.352 132.308 710.633 124.5 718.751 119L739.001 99.78C733.708 110.455 730.969 122.215 731.001 134.13C731.001 166.4 750.411 193.67 777.001 202.48Z" fill="white"/>
<path d="M784.899 56L787.489 63.3C782.582 63.9861 777.778 65.2793 773.189 67.15L784.899 56Z" fill="white"/>
<path d="M833.9 194.46L829.17 195.13C830.52 194.21 831.83 193.26 833.17 192.24L833.9 194.46Z" fill="white"/>
<path d="M23.5709 81.76H350.181C350.318 81.7588 350.453 81.7969 350.569 81.8698C350.686 81.9426 350.779 82.0472 350.838 82.1713C350.896 82.2953 350.919 82.4335 350.901 82.5697C350.884 82.7059 350.829 82.8344 350.741 82.94L223.551 239.88C223.464 239.984 223.408 240.11 223.388 240.244C223.369 240.378 223.386 240.515 223.439 240.64C223.491 240.765 223.577 240.873 223.687 240.952C223.797 241.031 223.926 241.079 224.061 241.09C236.121 241.99 320.991 251.35 341.461 337.78C363.511 430.88 304.711 497.03 260.611 519.08C216.511 541.13 77.5509 574 2.69094 478.14C2.54577 477.949 2.48032 477.708 2.50828 477.47C2.53624 477.231 2.65545 477.013 2.84094 476.86L66.5809 425.15C66.7048 425.035 66.8673 424.972 67.0359 424.972C67.2046 424.972 67.3671 425.035 67.4909 425.15C73.5809 431.38 144.401 500.73 227.541 449.21C227.541 449.21 316.961 370.81 210.391 299.76C210.391 299.76 156.951 275.47 91.1909 295.82C91.135 295.837 91.0752 295.836 91.0198 295.818C90.9644 295.799 90.9162 295.763 90.882 295.716C90.8479 295.668 90.8294 295.612 90.8292 295.553C90.829 295.495 90.8471 295.438 90.8809 295.39L196.141 159.92C196.216 159.83 196.263 159.721 196.277 159.605C196.292 159.489 196.272 159.371 196.222 159.266C196.171 159.161 196.092 159.072 195.992 159.011C195.893 158.949 195.778 158.918 195.661 158.92H22.3809C22.1376 158.92 21.8967 158.872 21.6721 158.778C21.4476 158.684 21.2439 158.547 21.0727 158.374C20.9016 158.201 20.7665 157.996 20.6752 157.77C20.5839 157.545 20.5383 157.303 20.5409 157.06L21.7109 83.58C21.7214 83.0936 21.922 82.6308 22.2697 82.2905C22.6173 81.9503 23.0845 81.7599 23.5709 81.76Z" stroke="white" stroke-width="5" stroke-miterlimit="10"/>
<path d="M804.06 269.79C806.005 281.534 806.988 293.416 807 305.32C807 425.4 709.65 522.75 589.57 522.75C469.49 522.75 372.08 425.4 372.08 305.32C372.08 187.32 466.14 91.21 583.39 87.97" stroke="white" stroke-width="5" stroke-miterlimit="10"/>
<path d="M722.722 295.11C722.982 298.49 723.112 301.89 723.112 305.33C723.103 330.954 715.725 356.034 701.857 377.581C687.99 399.128 668.218 416.232 644.9 426.854C621.581 437.476 595.7 441.168 570.341 437.489C544.983 433.81 521.218 422.916 501.879 406.105C482.541 389.295 468.445 367.277 461.272 342.678C454.1 318.078 454.153 291.935 461.426 267.365C468.699 242.795 482.885 220.835 502.292 204.104C521.699 187.372 545.509 176.575 570.882 173" stroke="white" stroke-width="5" stroke-miterlimit="10"/>
</svg>
