<svg width="390" height="461" viewBox="0 0 390 461" fill="none" xmlns="http://www.w3.org/2000/svg">
<path d="M7.13211 113.249H6.57031V432.103L7.08716 432.665V113.249H7.13211Z" fill="#151616"/>
<path d="M175.999 422.771C142.404 427.898 58.0223 432.26 7.08984 432.26V432.665C58.1571 432.665 142.404 428.303 175.999 423.175C181.775 422.298 188.797 420.792 196.696 418.79C188.797 420.522 181.775 421.894 175.999 422.771Z" fill="#151616"/>
<path d="M383.324 125.594H7.08984V440.379H383.324V125.594Z" stroke="#151616" stroke-miterlimit="10"/>
<path d="M383.324 123.537H7.08984V438.321H383.324V123.537Z" stroke="#151616" stroke-miterlimit="10"/>
<path d="M383.324 121.479H7.08984V436.263H383.324V121.479Z" stroke="#151616" stroke-miterlimit="10"/>
<path d="M383.324 119.421H7.08984V434.206H383.324V119.421Z" stroke="#151616" stroke-miterlimit="10"/>
<path d="M383.324 117.173H7.08984V431.957H383.324V117.173Z" stroke="#151616" stroke-miterlimit="10"/>
<path d="M7.13235 113.249H383.85C384.064 213.971 379.153 330.256 359.131 352.215C329.918 384.058 218.682 416.305 175.986 422.771C142.39 427.898 57.7389 432.261 7.07617 432.261L7.13235 113.249Z" stroke="#151616" stroke-miterlimit="10"/>
<path d="M373.547 35.0698H16.8512C14.1245 35.0698 11.5095 36.1538 9.58151 38.0832C7.65347 40.0126 6.57031 42.6294 6.57031 45.358V113.249H383.827V45.358C383.827 42.6294 382.744 40.0126 380.816 38.0832C378.888 36.1538 376.273 35.0698 373.547 35.0698Z" stroke="#151616" stroke-miterlimit="10"/>
<path d="M40.9991 16.5171H37.9205C34.5137 16.5171 31.752 19.2808 31.752 22.69V80.2925C31.752 83.7017 34.5137 86.4654 37.9205 86.4654H40.9991C44.4059 86.4654 47.1676 83.7017 47.1676 80.2925V22.69C47.1676 19.2808 44.4059 16.5171 40.9991 16.5171Z" fill="white" stroke="#151616" stroke-miterlimit="10"/>
<path d="M103.425 16.5171H100.346C96.9395 16.5171 94.1777 19.2808 94.1777 22.69V80.2925C94.1777 83.7017 96.9395 86.4654 100.346 86.4654H103.425C106.832 86.4654 109.593 83.7017 109.593 80.2925V22.69C109.593 19.2808 106.832 16.5171 103.425 16.5171Z" fill="white" stroke="#151616" stroke-miterlimit="10"/>
<path d="M165.851 16.5171H162.772C159.365 16.5171 156.604 19.2808 156.604 22.69V80.2925C156.604 83.7017 159.365 86.4654 162.772 86.4654H165.851C169.257 86.4654 172.019 83.7017 172.019 80.2925V22.69C172.019 19.2808 169.257 16.5171 165.851 16.5171Z" fill="white" stroke="#151616" stroke-miterlimit="10"/>
<path d="M228.276 16.5171H225.198C221.791 16.5171 219.029 19.2808 219.029 22.69V80.2925C219.029 83.7017 221.791 86.4654 225.198 86.4654H228.276C231.683 86.4654 234.445 83.7017 234.445 80.2925V22.69C234.445 19.2808 231.683 16.5171 228.276 16.5171Z" fill="white" stroke="#151616" stroke-miterlimit="10"/>
<path d="M290.704 16.5171H287.626C284.219 16.5171 281.457 19.2808 281.457 22.69V80.2925C281.457 83.7017 284.219 86.4654 287.626 86.4654H290.704C294.111 86.4654 296.873 83.7017 296.873 80.2925V22.69C296.873 19.2808 294.111 16.5171 290.704 16.5171Z" fill="white" stroke="#151616" stroke-miterlimit="10"/>
<path d="M353.132 16.5171H350.053C346.647 16.5171 343.885 19.2808 343.885 22.69V80.2925C343.885 83.7017 346.647 86.4654 350.053 86.4654H353.132C356.539 86.4654 359.3 83.7017 359.3 80.2925V22.69C359.3 19.2808 356.539 16.5171 353.132 16.5171Z" fill="white" stroke="#151616" stroke-miterlimit="10"/>
<path d="M292.378 389.703C250.367 406.107 201.209 418.937 175.996 422.771C219.738 413.157 259.681 388.769 291.726 342.197L292.378 389.703Z" fill="white"/>
<path d="M359.087 352.215C329.93 384.058 218.638 416.305 175.941 422.771C219.683 413.157 259.649 390.321 291.739 343.749C314.638 355.723 346.154 365.944 359.458 351.687C359.368 351.855 359.233 352.047 359.087 352.215Z" stroke="#151616" stroke-miterlimit="10"/>
<path d="M49.457 80.0906C49.457 82.0703 48.8702 84.0055 47.7709 85.6514C46.6716 87.2973 45.1091 88.5799 43.2812 89.337C41.4533 90.0941 39.4421 90.2916 37.502 89.9045C35.5619 89.5175 33.7801 88.5633 32.382 87.1627C30.9839 85.762 30.0324 83.9779 29.6478 82.036C29.2632 80.094 29.4629 78.0816 30.2215 76.2532C30.9801 74.4249 32.2635 72.8628 33.9095 71.7645C35.5555 70.6663 37.49 70.0813 39.4682 70.0835C40.7809 70.0835 42.0807 70.3424 43.2934 70.8455C44.506 71.3485 45.6076 72.0858 46.5353 73.0152C47.463 73.9446 48.1985 75.0478 48.6998 76.2619C49.2012 77.4759 49.4584 78.777 49.457 80.0906Z" fill="#151616"/>
<path d="M111.885 80.0906C111.885 82.0703 111.298 84.0055 110.199 85.6514C109.099 87.2973 107.537 88.5799 105.709 89.337C103.881 90.0941 101.87 90.2916 99.9297 89.9045C97.9896 89.5175 96.2078 88.5633 94.8097 87.1627C93.4117 85.762 92.4601 83.9779 92.0755 82.036C91.691 80.094 91.8906 78.0816 92.6492 76.2532C93.4078 74.4249 94.6913 72.8628 96.3372 71.7645C97.9832 70.6663 99.9177 70.0813 101.896 70.0835C103.209 70.0835 104.508 70.3424 105.721 70.8455C106.934 71.3485 108.035 72.0858 108.963 73.0152C109.891 73.9446 110.626 75.0478 111.128 76.2619C111.629 77.4759 111.886 78.777 111.885 80.0906Z" fill="#151616"/>
<path d="M174.312 80.0906C174.312 82.0703 173.726 84.0055 172.626 85.6514C171.527 87.2973 169.965 88.5799 168.137 89.337C166.309 90.0941 164.298 90.2916 162.357 89.9045C160.417 89.5175 158.636 88.5633 157.237 87.1627C155.839 85.762 154.888 83.9779 154.503 82.036C154.119 80.094 154.318 78.0816 155.077 76.2532C155.836 74.4249 157.119 72.8628 158.765 71.7645C160.411 70.6663 162.345 70.0813 164.324 70.0835C165.636 70.0835 166.936 70.3424 168.149 70.8455C169.361 71.3485 170.463 72.0858 171.391 73.0152C172.318 73.9446 173.054 75.0478 173.555 76.2619C174.057 77.4759 174.314 78.777 174.312 80.0906Z" fill="#151616"/>
<path d="M236.74 80.0906C236.74 82.0703 236.153 84.0055 235.054 85.6514C233.955 87.2973 232.392 88.5799 230.564 89.337C228.737 90.0941 226.725 90.2916 224.785 89.9045C222.845 89.5175 221.063 88.5633 219.665 87.1627C218.267 85.762 217.316 83.9779 216.931 82.036C216.546 80.094 216.746 78.0816 217.505 76.2532C218.263 74.4249 219.547 72.8628 221.193 71.7645C222.839 70.6663 224.773 70.0813 226.751 70.0835C228.064 70.0835 229.364 70.3424 230.577 70.8455C231.789 71.3485 232.891 72.0858 233.819 73.0152C234.746 73.9446 235.482 75.0478 235.983 76.2619C236.484 77.4759 236.742 78.777 236.74 80.0906Z" fill="#151616"/>
<path d="M299.166 80.0906C299.166 82.0698 298.579 84.0046 297.481 85.6502C296.382 87.2959 294.82 88.5785 292.993 89.3359C291.166 90.0933 289.155 90.2915 287.215 89.9054C285.275 89.5192 283.493 88.5662 282.095 87.1666C280.696 85.7671 279.744 83.984 279.358 82.0429C278.972 80.1017 279.17 78.0896 279.927 76.261C280.684 74.4325 281.966 72.8696 283.61 71.77C285.255 70.6704 287.188 70.0835 289.166 70.0835C290.48 70.082 291.781 70.3399 292.995 70.8422C294.208 71.3446 295.311 72.0817 296.24 73.0112C297.169 73.9407 297.906 75.0445 298.408 76.2593C298.91 77.4741 299.167 78.776 299.166 80.0906Z" fill="#151616"/>
<path d="M361.594 80.0906C361.594 82.0698 361.007 84.0046 359.908 85.6502C358.81 87.2959 357.248 88.5785 355.421 89.3359C353.593 90.0933 351.583 90.2915 349.643 89.9054C347.703 89.5192 345.921 88.5662 344.523 87.1666C343.124 85.7671 342.172 83.984 341.786 82.0429C341.4 80.1017 341.598 78.0896 342.355 76.261C343.112 74.4325 344.394 72.8696 346.038 71.77C347.683 70.6704 349.616 70.0835 351.594 70.0835C352.907 70.082 354.208 70.3399 355.422 70.8422C356.636 71.3446 357.739 72.0817 358.668 73.0112C359.597 73.9407 360.333 75.0445 360.835 76.2593C361.338 77.4741 361.595 78.776 361.594 80.0906Z" fill="#151616"/>
</svg>
