<svg xmlns="http://www.w3.org/2000/svg" viewBox="0 0 955.79 652.22"><defs><style>.cls-1,.cls-4,.cls-7{fill:#fff;}.cls-2,.cls-3{fill:none;stroke:#fff;stroke-miterlimit:10;}.cls-3{stroke-width:5px;}.cls-4,.cls-7{font-size:50.7px;font-family:MSReferenceSansSerif, MS Reference Sans Serif;}.cls-4{letter-spacing:0.1em;}.cls-5{letter-spacing:0.08em;}.cls-6,.cls-7{letter-spacing:0.1em;}</style></defs><g id="Layer_2" data-name="Layer 2"><g id="Layer_1-2" data-name="Layer 1"><g id="telescope"><path class="cls-1" d="M692.13,377.92l-94.63,19.8a4.37,4.37,0,0,1-5.22-4.93L610.44,270.2a4.38,4.38,0,0,1,4-3.73l46.83-3.19a4.37,4.37,0,0,1,4.51,3.19l29.63,106A4.38,4.38,0,0,1,692.13,377.92Z" transform="translate(0 -22.97)"/><path class="cls-1" d="M901.28,147.89c-13.48,20.82-58.8,51.45-64.93,55.12a15.19,15.19,0,0,1-4.36,1.42,61.36,61.36,0,0,0-36.06-11.83,62.16,62.16,0,0,0-42.66,17.28c-8.95-1.54-14.62-4.46-17.8-6.62a5.38,5.38,0,0,1-2-6.45c10.81-26.59,59.81-61.34,82-64.85C838.8,128.29,914.75,127.06,901.28,147.89Z" transform="translate(0 -22.97)"/><path class="cls-1" d="M766.53,383.7c0,9.13-6.58,16.53-14.7,16.53s-14.7-7.4-14.7-16.53a17.35,17.35,0,0,1,.26-3.07h-.26V330.41H742v40.95a13.79,13.79,0,0,1,9.8-4.2C760,367.16,766.53,374.56,766.53,383.7Z" transform="translate(0 -22.97)"/><path class="cls-1" d="M724.62,194.44h.26V252H720v-48.3a13.79,13.79,0,0,1-9.8,4.2c-8.12,0-14.7-7.4-14.7-16.54s6.58-16.53,14.7-16.53,14.7,7.4,14.7,16.53A18.26,18.26,0,0,1,724.62,194.44Z" transform="translate(0 -22.97)"/><path class="cls-1" d="M844.93,263c0,29.76-21.94,53.89-49,53.89-1,0-2,0-3-.11,1.92-11.29.32-25.13-5.25-38.88-8.09-19.95-22.34-34.22-36.07-38,7.85-18.23,24.73-30.84,44.3-30.84C823,209.14,844.93,233.27,844.93,263Z" transform="translate(0 -22.97)"/><path class="cls-1" d="M795.93,195.94c-33.69,0-61,30-61,67.1s27.3,67.09,61,67.09,61-30,61-67.09S829.61,195.94,795.93,195.94Zm0,124.67c-29,0-52.68-25.82-52.68-57.57s23.63-57.58,52.68-57.58S848.6,231.28,848.6,263,825,320.61,795.93,320.61Z" transform="translate(0 -22.97)"/><path class="cls-1" d="M954.08,329.26l-91,19.73a8.53,8.53,0,0,1-8-2.47l-21.54-22.79L831.92,322q2.54-1.92,4.91-4.1a73.25,73.25,0,0,0,22.2-41l95.57,48.3A2.18,2.18,0,0,1,954.08,329.26Z" transform="translate(0 -22.97)"/><path class="cls-1" d="M742.84,333.33l9.34-1c-8,5.86-18.36,9.08-29.75,9.08-26,0-47.78-16.8-47.78-43.48,0-25.46,19.27-46.39,43.63-48.24l-4.17,4c-13.19,6.9-22.31,21.64-22.31,38.71,0,23.67,17.56,42.87,39.2,42.87A36.45,36.45,0,0,0,742.84,333.33Z" transform="translate(0 -22.97)"/><path class="cls-2" d="M738.48,337.75h-.13v0Z" transform="translate(0 -22.97)"/><path class="cls-1" d="M777,332.31l-9.81,1.38-28.75,4.06-.14,0a49,49,0,0,1-19.59-88.87L739,229.61A76.87,76.87,0,0,0,731,264C731,296.23,750.41,323.5,777,332.31Z" transform="translate(0 -22.97)"/><path class="cls-1" d="M784.9,185.86l2.59,7.3a59.82,59.82,0,0,0-14.3,3.85Z" transform="translate(0 -22.97)"/><path class="cls-1" d="M833.9,324.28l-4.73.68c1.35-.92,2.66-1.88,4-2.89Z" transform="translate(0 -22.97)"/></g><path class="cls-3" d="M23.57,211.59H350.18a.72.72,0,0,1,.56,1.18L223.55,369.71a.74.74,0,0,0,.51,1.21c12.06.9,96.93,10.26,117.4,96.69,22.05,93.1-36.75,159.24-80.85,181.29S77.55,703.87,2.69,608a.93.93,0,0,1,.15-1.28L66.58,555a.68.68,0,0,1,.91,0c6.09,6.23,76.91,75.58,160.05,24.06,0,0,89.42-78.4-17.15-149.45,0,0-53.44-24.29-119.2-3.94a.28.28,0,0,1-.31-.43L196.14,289.75a.61.61,0,0,0-.48-1H22.38a1.84,1.84,0,0,1-1.84-1.86l1.17-73.48A1.86,1.86,0,0,1,23.57,211.59Z" transform="translate(0 -22.97)"/><path class="cls-3" d="M804.06,399.62A218.78,218.78,0,0,1,807,435.15c0,120.08-97.35,217.43-217.43,217.43S372.08,555.23,372.08,435.15c0-118,94.06-214.11,211.31-217.35" transform="translate(0 -22.97)"/><path class="cls-3" d="M722.72,424.94c.26,3.38.39,6.78.39,10.22a133.59,133.59,0,1,1-152.23-132.3" transform="translate(0 -22.97)"/><path class="cls-1" d="M21.34,23h8.21v46.4h63.9V23h8.21v106.5H93.45V77H29.55v52.49H21.34Z" transform="translate(0 -22.97)"/><path class="cls-1" d="M140.91,23V87.48c0,28.29,16,35.6,31,35.6,17.8,0,31-7.46,31-35.6V23h8.37V87c0,33.32-17.65,43.66-39.71,43.66-21,0-39.25-11.41-39.25-42.29V23Z" transform="translate(0 -22.97)"/><path class="cls-1" d="M241.17,23h37.12c20.38,0,31.34,10.81,31.34,26.17,0,12.63-7.61,20.84-16.43,23.28,7.6,2.13,20.23,9.58,20.23,26.32,0,21.29-16,30.73-34.53,30.73H241.17Zm34.38,45.8C294,68.77,301,61.92,301,49.6c0-10.5-7.3-19-22.21-19H249.23V68.77Zm-26.32,53.09h30c14,0,25.71-7,25.71-22.67,0-13.54-8.67-22.82-30.12-22.82H249.23Z" transform="translate(0 -22.97)"/><path class="cls-1" d="M337.77,23h37.12c20.39,0,31.34,10.81,31.34,26.17,0,12.63-7.61,20.84-16.43,23.28C397.41,74.55,410,82,410,98.74c0,21.29-16,30.73-34.53,30.73H337.77Zm34.38,45.8c18.41,0,25.41-6.85,25.41-19.17,0-10.5-7.3-19-22.21-19H345.83V68.77Zm-26.32,53.09h30c14,0,25.71-7,25.71-22.67,0-13.54-8.67-22.82-30.12-22.82H345.83Z" transform="translate(0 -22.97)"/><path class="cls-1" d="M434.38,23h8.21v98.89h57.2l-1.52,7.61H434.38Z" transform="translate(0 -22.97)"/><path class="cls-1" d="M578.75,77.13H524.44v44.73h59.48l-1.22,7.61H516.22V23h65.27v7.61h-57v39h54.31Z" transform="translate(0 -22.97)"/><text class="cls-4" transform="translate(17.94 168.09)">S<tspan class="cls-5" x="39.73" y="0">P</tspan><tspan class="cls-6" x="74.13" y="0">ACE</tspan></text><text class="cls-7" transform="translate(248.23 168.09)">TELESCOPE</text></g></g></svg>