<svg width="1320" height="285" viewBox="0 0 1320 285" fill="none" xmlns="http://www.w3.org/2000/svg">
<path d="M32.94 79.28V206H9V79.28H32.94ZM182.772 173.24V110.6C182.772 89.36 193.032 79.28 213.732 79.28H242.532C261.612 79.28 272.952 92.96 272.952 110.42V206H249.012V111.32C249.012 104.84 247.212 101.78 239.472 101.78H215.172C208.332 101.78 206.532 104.84 206.532 111.68V173.78C206.532 195.2 197.532 206 172.332 206H169.812C144.612 206 135.612 195.2 135.612 173.78V111.68C135.612 104.84 133.632 101.78 126.972 101.78H102.672C94.9317 101.78 93.1317 104.84 93.1317 111.32V206H69.0117V110.42C69.0117 92.96 80.5317 79.28 99.6117 79.28H128.412C149.112 79.28 159.372 89.36 159.372 110.6V173.24C159.372 179.9 163.332 182.78 169.092 182.78H173.052C178.812 182.78 182.772 179.9 182.772 173.24ZM438.083 113.3L462.023 206H436.463L423.323 154.16H351.323L356.903 130.76H417.023L412.343 113.3C410.183 105.74 406.043 101.78 399.563 101.78H365.003C358.343 101.78 353.843 105.74 351.863 113.3L328.103 206H302.723L326.483 113.3C332.243 90.44 344.483 79.28 363.383 79.28H401.003C419.903 79.28 432.323 90.44 438.083 113.3Z" fill="white"/>
<path d="M841.58 153.8V130.94H912.68C937.34 130.94 949.76 141.2 949.76 164.96V171.62C949.76 192.86 937.34 206 912.68 206H832.4C808.64 206 798.92 195.38 798.92 173.42V111.5C798.92 89.9 809.18 79.28 832.4 79.28H943.82V101.78H832.4C826.1 101.78 822.86 105.38 822.86 111.5V173.42C822.86 181.16 823.76 182.96 832.4 182.96H912.68C921.32 182.96 925.82 178.1 925.82 171.8V164.96C925.82 156.68 921.5 153.8 912.68 153.8H841.58ZM1130.48 182.96V206H1015.46C991.699 206 981.979 195.38 981.979 173.42V111.5C981.979 89.9 992.239 79.28 1015.46 79.28H1130.48V101.78H1015.46C1009.16 101.78 1005.92 105.38 1005.92 111.5V126.98H1130.48V150.38H1005.92V173.42C1005.92 181.16 1006.82 182.96 1015.46 182.96H1130.48ZM1162.6 206V183.32H1272.94C1279.24 183.32 1286.26 178.1 1286.26 171.8V164.96C1286.26 157.4 1281.76 153.8 1272.94 153.8H1197.7C1172.14 153.8 1160.8 139.58 1160.8 119.6V113.3C1160.8 94.4 1173.94 79.28 1197.7 79.28H1307.86V101.78H1197.7C1191.4 101.78 1184.56 107.18 1184.56 113.3V119.6C1184.56 127.16 1189.06 130.94 1197.7 130.94H1272.94C1298.32 130.94 1310.02 145.7 1310.02 164.96V171.8C1310.02 191.24 1296.52 206 1272.94 206H1162.6Z" fill="white"/>
<line x1="619" y1="273.5" y2="273.5" stroke="white" stroke-dasharray="10 10"/>
<line x1="1320" y1="12.5" x2="312" y2="12.5" stroke="white" stroke-dasharray="10 10"/>
<rect x="619" y="261" width="701" height="24" fill="white"/>
<rect width="643" height="24" fill="white"/>
</svg>
