<svg width="1320" height="285" viewBox="0 0 1320 285" fill="none" xmlns="http://www.w3.org/2000/svg">
<path d="M218.06 174.5V111.68C218.06 104.84 216.08 101.78 209.42 101.78H185.12C177.38 101.78 175.58 104.84 175.58 111.32V206H151.46V110.42C151.46 92.96 162.98 79.28 182.06 79.28H210.86C231.56 79.28 241.82 89.36 241.82 110.6V173.42C241.82 180.44 243.62 183.32 250.46 183.32H274.76C282.5 183.32 284.3 180.44 284.3 173.78V79.28H308.42V174.68C308.42 192.14 296.9 206 277.82 206H249.02C228.32 206 218.06 195.92 218.06 174.5ZM491.268 182.96V206H376.248C352.488 206 342.768 195.38 342.768 173.42V111.5C342.768 89.9 353.028 79.28 376.248 79.28H491.268V101.78H376.248C369.948 101.78 366.708 105.38 366.708 111.5V126.98H491.268V150.38H366.708V173.42C366.708 181.16 367.608 182.96 376.248 182.96H491.268Z" fill="white"/>
<path d="M859.82 112.04V174.5C859.82 195.92 849.56 206 828.86 206H800.06C780.98 206 769.46 192.14 769.46 174.68V79.28H793.58V173.78C793.58 180.44 795.38 183.32 803.12 183.32H827.42C834.08 183.32 836.06 180.44 836.06 173.42V111.32C836.06 89.9 845.06 79.28 870.26 79.28H872.78C897.98 79.28 906.98 89.9 906.98 111.32V173.42C906.98 180.44 908.78 183.32 915.62 183.32H939.92C947.66 183.32 949.46 180.44 949.46 173.78V79.28H973.4V174.68C973.4 192.14 962.06 206 942.98 206H914.18C893.48 206 883.22 195.92 883.22 174.5V112.04C883.22 105.38 879.26 102.32 873.5 102.32H869.54C863.78 102.32 859.82 105.38 859.82 112.04ZM1008.78 206V183.32H1119.12C1125.42 183.32 1132.44 178.1 1132.44 171.8V164.96C1132.44 157.4 1127.94 153.8 1119.12 153.8H1043.88C1018.32 153.8 1006.98 139.58 1006.98 119.6V113.3C1006.98 94.4 1020.12 79.28 1043.88 79.28H1154.04V101.78H1043.88C1037.58 101.78 1030.74 107.18 1030.74 113.3V119.6C1030.74 127.16 1035.24 130.94 1043.88 130.94H1119.12C1144.5 130.94 1156.2 145.7 1156.2 164.96V171.8C1156.2 191.24 1142.7 206 1119.12 206H1008.78Z" fill="white"/>
<line x1="619" y1="273.5" y2="273.5" stroke="white" stroke-dasharray="10 10"/>
<line x1="1320" y1="12.5" x2="312" y2="12.5" stroke="white" stroke-dasharray="10 10"/>
<rect x="619" y="261" width="701" height="24" fill="white"/>
<rect width="643" height="24" fill="white"/>
</svg>
