<svg width="1323" height="285" viewBox="0 0 1323 285" fill="none" xmlns="http://www.w3.org/2000/svg">
<path d="M9 206V183.32H119.34C125.64 183.32 132.66 178.1 132.66 171.8V164.96C132.66 157.4 128.16 153.8 119.34 153.8H44.1C18.54 153.8 7.2 139.58 7.2 119.6V113.3C7.2 94.4 20.34 79.28 44.1 79.28H154.26V101.78H44.1C37.8 101.78 30.96 107.18 30.96 113.3V119.6C30.96 127.16 35.46 130.94 44.1 130.94H119.34C144.72 130.94 156.42 145.7 156.42 164.96V171.8C156.42 191.24 142.92 206 119.34 206H9ZM325.112 182.96V206H223.052C199.292 206 189.572 195.38 189.572 173.42V111.5C189.572 89.9 199.832 79.28 223.052 79.28H325.112V101.78H223.052C216.752 101.78 213.512 105.38 213.512 111.5V173.42C213.512 181.16 214.412 182.96 223.052 182.96H325.112Z" fill="white"/>
<path d="M775.42 182.96V206H660.4C636.64 206 626.92 195.38 626.92 173.42V111.5C626.92 89.9 637.18 79.28 660.4 79.28H775.42V101.78H660.4C654.1 101.78 650.86 105.38 650.86 111.5V126.98H775.42V150.38H650.86V173.42C650.86 181.16 651.76 182.96 660.4 182.96H775.42ZM873.603 174.5V111.68C873.603 104.84 871.623 101.78 864.963 101.78H840.663C832.923 101.78 831.123 104.84 831.123 111.32V206H807.003V110.42C807.003 92.96 818.523 79.28 837.603 79.28H866.403C887.103 79.28 897.363 89.36 897.363 110.6V173.42C897.363 180.44 899.163 183.32 906.003 183.32H930.303C938.043 183.32 939.843 180.44 939.843 173.78V79.28H963.963V174.68C963.963 192.14 952.443 206 933.363 206H904.563C883.863 206 873.603 195.92 873.603 174.5ZM1133.85 182.96V206H1031.79C1008.03 206 998.311 195.38 998.311 173.42V111.5C998.311 89.9 1008.57 79.28 1031.79 79.28H1133.85V101.78H1031.79C1025.49 101.78 1022.25 105.38 1022.25 111.5V173.42C1022.25 181.16 1023.15 182.96 1031.79 182.96H1133.85ZM1314.4 182.96V206H1199.38C1175.62 206 1165.9 195.38 1165.9 173.42V111.5C1165.9 89.9 1176.16 79.28 1199.38 79.28H1314.4V101.78H1199.38C1193.08 101.78 1189.84 105.38 1189.84 111.5V126.98H1314.4V150.38H1189.84V173.42C1189.84 181.16 1190.74 182.96 1199.38 182.96H1314.4Z" fill="white"/>
<line x1="622" y1="273.5" x2="3" y2="273.5" stroke="white" stroke-dasharray="10 10"/>
<line x1="1323" y1="12.5" x2="315" y2="12.5" stroke="white" stroke-dasharray="10 10"/>
<rect x="449" y="261" width="874" height="24" fill="white"/>
<rect x="3" width="357" height="24" fill="white"/>
</svg>
